<svg width="26" height="26" viewBox="0 0 26 26" fill="none" xmlns="http://www.w3.org/2000/svg">
<mask id="path-1-inside-1_122_80" fill="white">
<path d="M0.610577 15.2644C1.06654 17.4171 2.0828 19.4111 3.55659 21.045C5.03038 22.6789 6.90945 23.8947 9.00381 24.5695C11.0982 25.2443 13.3336 25.3541 15.484 24.8879C17.6344 24.4217 19.6236 23.396 21.2505 21.9144C22.8774 20.4328 24.0842 18.548 24.749 16.4504C25.4138 14.3529 25.513 12.117 25.0365 9.96881C24.5601 7.82063 23.5248 5.83633 22.0355 4.21654C20.5463 2.59676 18.6557 1.39892 16.555 0.744124L15.8112 3.13026C17.4918 3.6541 19.0042 4.61237 20.1957 5.9082C21.3871 7.20403 22.2153 8.79146 22.5964 10.51C22.9776 12.2286 22.8983 14.0173 22.3664 15.6953C21.8346 17.3734 20.8691 18.8812 19.5676 20.0665C18.2661 21.2517 16.6748 22.0723 14.9544 22.4453C13.2341 22.8183 11.4458 22.7304 9.77028 22.1906C8.09479 21.6508 6.59153 20.6781 5.4125 19.371C4.23347 18.0639 3.42047 16.4686 3.05569 14.7465L0.610577 15.2644Z"/>
</mask>
<path d="M0.610577 15.2644C1.06654 17.4171 2.0828 19.4111 3.55659 21.045C5.03038 22.6789 6.90945 23.8947 9.00381 24.5695C11.0982 25.2443 13.3336 25.3541 15.484 24.8879C17.6344 24.4217 19.6236 23.396 21.2505 21.9144C22.8774 20.4328 24.0842 18.548 24.749 16.4504C25.4138 14.3529 25.513 12.117 25.0365 9.96881C24.5601 7.82063 23.5248 5.83633 22.0355 4.21654C20.5463 2.59676 18.6557 1.39892 16.555 0.744124L15.8112 3.13026C17.4918 3.6541 19.0042 4.61237 20.1957 5.9082C21.3871 7.20403 22.2153 8.79146 22.5964 10.51C22.9776 12.2286 22.8983 14.0173 22.3664 15.6953C21.8346 17.3734 20.8691 18.8812 19.5676 20.0665C18.2661 21.2517 16.6748 22.0723 14.9544 22.4453C13.2341 22.8183 11.4458 22.7304 9.77028 22.1906C8.09479 21.6508 6.59153 20.6781 5.4125 19.371C4.23347 18.0639 3.42047 16.4686 3.05569 14.7465L0.610577 15.2644Z" stroke="#4D4F41" stroke-width="2.74563" mask="url(#path-1-inside-1_122_80)"/>
</svg>
