<svg width="19" height="17" viewBox="0 0 19 17" fill="none" xmlns="http://www.w3.org/2000/svg">
<mask id="path-1-inside-1_122_79" fill="white">
<path d="M0.72751 14.9948C2.92252 16.131 5.40517 16.5908 7.86149 16.316C10.3178 16.0412 12.6375 15.0442 14.5272 13.4511C16.4169 11.858 17.7917 9.74026 18.4779 7.36576C19.164 4.99126 19.1306 2.46663 18.3819 0.111111L15.9999 0.868213C16.5989 2.75263 16.6256 4.77233 16.0767 6.67193C15.5278 8.57153 14.4279 10.2657 12.9162 11.5402C11.4044 12.8147 9.54868 13.6123 7.58362 13.8321C5.61857 14.0519 3.63246 13.6841 1.87644 12.7752L0.72751 14.9948Z"/>
</mask>
<path d="M0.72751 14.9948C2.92252 16.131 5.40517 16.5908 7.86149 16.316C10.3178 16.0412 12.6375 15.0442 14.5272 13.4511C16.4169 11.858 17.7917 9.74026 18.4779 7.36576C19.164 4.99126 19.1306 2.46663 18.3819 0.111111L15.9999 0.868213C16.5989 2.75263 16.6256 4.77233 16.0767 6.67193C15.5278 8.57153 14.4279 10.2657 12.9162 11.5402C11.4044 12.8147 9.54868 13.6123 7.58362 13.8321C5.61857 14.0519 3.63246 13.6841 1.87644 12.7752L0.72751 14.9948Z" stroke="#4D4F41" stroke-width="2.74563" mask="url(#path-1-inside-1_122_79)"/>
</svg>
