<svg width="33" height="33" viewBox="0 0 33 33" fill="none" xmlns="http://www.w3.org/2000/svg">
<g clip-path="url(#clip0_60_103)">
<circle cx="16" cy="16.4984" r="16" fill="#C4C4C4"/>
<path fill-rule="evenodd" clip-rule="evenodd" d="M8.85455 17.5951L8.85537 17.5967L8.78915 17.6297C8.84642 17.7378 8.90021 17.8477 8.95045 17.9593C9.16397 18.4333 9.31351 18.937 9.39519 19.4549C9.44656 19.7806 9.47109 20.112 9.4678 20.4451L9.46777 20.4484C9.45921 21.2706 9.2815 22.0778 8.95039 22.813C8.86417 23.0044 8.76754 23.191 8.66079 23.3716C8.14411 24.246 7.4108 24.9475 6.54361 25.3969C6.29724 25.5246 6.04285 25.6305 5.78294 25.7142C5.176 25.9095 4.53896 25.9835 3.90366 25.9303C3.85341 25.926 3.80318 25.921 3.75297 25.9152L3.76511 25.7935L3.96357 23.8033C3.99461 23.8069 4.02565 23.8099 4.0567 23.8125C4.61748 23.8596 5.18045 23.7461 5.68828 23.4829C6.22423 23.2052 6.67743 22.7716 6.99676 22.2312C7.04657 22.1469 7.0928 22.0606 7.1354 21.9724C7.36547 21.4962 7.48937 20.9673 7.49546 20.4279L7.4955 20.4246C7.5014 19.8582 7.37722 19.3002 7.13543 18.7998C7.10379 18.7343 7.07014 18.6698 7.0345 18.6063L7.04079 18.6022L7.7003 18.1723L7.07825 18.4823C6.7774 17.8786 6.54007 17.2483 6.36837 16.6015C6.10404 15.6057 5.99525 14.5709 6.04967 13.5339C6.13945 11.8233 6.6703 10.1651 7.59061 8.72036C8.51092 7.27565 9.78937 6.09363 11.3017 5.28923C12.814 4.48482 14.5087 4.0854 16.2211 4.12979C17.9334 4.17417 19.6052 4.66086 21.0738 5.54254C22.5424 6.42421 23.7579 7.67087 24.6021 9.16133C25.4464 10.6518 25.8906 12.3353 25.8916 14.0482C25.8922 15.0867 25.73 16.1145 25.4144 17.0952C25.2545 17.5922 25.0552 18.0771 24.8178 18.5452L24.9053 18.6022L24.9116 18.6063C24.876 18.6698 24.8423 18.7343 24.8107 18.7998C24.5689 19.3002 24.4447 19.8582 24.4506 20.4246L24.4507 20.4279C24.4568 20.9673 24.5807 21.4962 24.8107 21.9724C24.8533 22.0606 24.8996 22.1469 24.9494 22.2312C25.2687 22.7716 25.7219 23.2052 26.2579 23.4829C26.7657 23.7461 27.3287 23.8596 27.8894 23.8125C27.9205 23.8099 27.9515 23.8069 27.9826 23.8033L28.181 25.7935L28.1932 25.9152C28.143 25.921 28.0927 25.926 28.0425 25.9303C27.4072 25.9835 26.7701 25.9095 26.1632 25.7142C25.9033 25.6305 25.6489 25.5246 25.4025 25.3969C24.5353 24.9475 23.802 24.246 23.2853 23.3716C23.1786 23.191 23.082 23.0044 22.9957 22.813C22.6646 22.0778 22.4869 21.2706 22.4784 20.4484L22.4783 20.4451C22.4751 20.112 22.4996 19.7806 22.551 19.4549C22.6296 18.9564 22.7711 18.4711 22.972 18.0126L22.8792 17.9602C23.5531 16.7671 23.9069 15.4198 23.9061 14.0494C23.9052 12.6791 23.5499 11.3323 22.8745 10.1399C22.1991 8.94755 21.2267 7.95022 20.0518 7.24488C18.8769 6.53954 17.5395 6.15019 16.1696 6.11468C14.7997 6.07917 13.444 6.39871 12.2341 7.04223C11.0243 7.68576 10.0015 8.63137 9.26525 9.78714C8.529 10.9429 8.10433 12.2695 8.0325 13.638C7.96071 15.0058 8.2439 16.369 8.85455 17.5951Z" fill="#51572B"/>
</g>
<defs>
<clipPath id="clip0_60_103">
<rect width="32" height="32" fill="white" transform="translate(0.0345459 0.491623)"/>
</clipPath>
</defs>
</svg>
