<svg width="32" height="32" viewBox="0 0 32 32" fill="none" xmlns="http://www.w3.org/2000/svg">
<g clip-path="url(#clip0_60_104)">
<path d="M6.63015 14.5564L5.48918 15.7422V18.8959H4.25847V9.56306H5.48918V14.1782L9.63641 9.56306H11.1235L7.45062 13.6847L11.412 18.8959H9.93768L6.63015 14.5564ZM15.0144 19.0241C14.0742 19.0241 13.3093 18.7165 12.7196 18.1011C12.1299 17.4815 11.835 16.6546 11.835 15.6205V15.4025C11.835 14.7145 11.9654 14.1013 12.226 13.5629C12.491 13.0202 12.8585 12.5971 13.3285 12.2937C13.8029 11.986 14.3157 11.8322 14.8669 11.8322C15.7686 11.8322 16.4694 12.1292 16.9694 12.7232C17.4694 13.3172 17.7193 14.1675 17.7193 15.2743V15.7679H13.0209C13.038 16.4516 13.2367 17.005 13.617 17.4281C14.0016 17.8468 14.4887 18.0562 15.0785 18.0562C15.4972 18.0562 15.8519 17.9708 16.1425 17.7998C16.4331 17.6289 16.6873 17.4024 16.9053 17.1204L17.6296 17.6845C17.0484 18.5776 16.1767 19.0241 15.0144 19.0241ZM14.8669 12.8065C14.3883 12.8065 13.9866 12.9817 13.6619 13.3321C13.3371 13.6782 13.1362 14.1654 13.0593 14.7936H16.5335V14.7038C16.4993 14.1013 16.3369 13.6355 16.0464 13.3065C15.7558 12.9732 15.3626 12.8065 14.8669 12.8065ZM20.7064 10.281V11.9604H22.0012V12.877H20.7064V17.1781C20.7064 17.4558 20.7641 17.6652 20.8794 17.8062C20.9948 17.943 21.1914 18.0114 21.4692 18.0114C21.6059 18.0114 21.7939 17.9857 22.0332 17.9344V18.8959C21.7213 18.9814 21.4179 19.0241 21.123 19.0241C20.5931 19.0241 20.1936 18.8639 19.9244 18.5434C19.6551 18.2229 19.5205 17.7678 19.5205 17.1781V12.877H18.2578V11.9604H19.5205V10.281H20.7064ZM27.674 18.2101C27.2125 18.7528 26.5351 19.0241 25.642 19.0241C24.9028 19.0241 24.3387 18.8105 23.9498 18.3831C23.5652 17.9515 23.3708 17.3148 23.3665 16.473V11.9604H24.5523V16.4409C24.5523 17.4922 24.9797 18.0178 25.8343 18.0178C26.7403 18.0178 27.3428 17.6802 27.6419 17.005V11.9604H28.8278V18.8959H27.6996L27.674 18.2101Z" fill="white"/>
<circle cx="16" cy="16" r="16" fill="#C4C4C4"/>
<path fill-rule="evenodd" clip-rule="evenodd" d="M23.0816 15.4507L23.0807 15.4491L23.1468 15.4158C23.0891 15.3079 23.0349 15.1982 22.9842 15.0869C22.7689 14.6136 22.6174 14.1106 22.5337 13.593C22.481 13.2675 22.4552 12.9362 22.4572 12.6031L22.4572 12.5998C22.4626 11.7775 22.6371 10.9696 22.9654 10.2332C23.0509 10.0414 23.1468 9.85451 23.2528 9.67344C23.7661 8.79704 24.4966 8.0927 25.3621 7.63988C25.608 7.51123 25.8619 7.40434 26.1215 7.31968C26.7277 7.12198 27.3644 7.0455 27.9999 7.09627C28.0502 7.10029 28.1005 7.1051 28.1507 7.11071L28.139 7.23245L27.9483 9.22348C27.9173 9.22002 27.8862 9.21704 27.8551 9.21456C27.2942 9.16974 26.7317 9.28536 26.2249 9.55053C25.69 9.83039 25.2385 10.2657 24.9213 10.8073C24.8718 10.8918 24.8259 10.9783 24.7836 11.0667C24.5554 11.5437 24.4336 12.0731 24.4296 12.6126L24.4296 12.6159C24.4259 13.1823 24.5522 13.7398 24.796 14.2393C24.8279 14.3047 24.8618 14.3691 24.8977 14.4323L24.8914 14.4365L24.2336 14.8689L24.8544 14.5565C25.1576 15.1591 25.3974 15.7884 25.5716 16.4346C25.8398 17.4293 25.9526 18.4637 25.9023 19.5009C25.8191 21.2118 25.2948 22.8721 24.3801 24.3204C23.4654 25.7687 22.1916 26.9557 20.6824 27.766C19.1732 28.5763 17.4801 28.9823 15.7676 28.9446C14.055 28.9069 12.3814 28.4267 10.9094 27.5508C9.43735 26.6748 8.217 25.4329 7.36697 23.9457C6.51694 22.4586 6.06616 20.7768 6.05845 19.0639C6.05378 18.0255 6.21203 16.997 6.52377 16.0151C6.68175 15.5175 6.87915 15.0318 7.11474 14.5628L7.02697 14.5061L7.02065 14.502C7.05605 14.4385 7.08945 14.3738 7.12084 14.3082C7.36067 13.8068 7.48267 13.2483 7.47457 12.682L7.47452 12.6787C7.46632 12.1393 7.34036 11.6108 7.10844 11.1356C7.0655 11.0476 7.01892 10.9614 6.96879 10.8773C6.64736 10.3381 6.19247 9.90638 5.65544 9.63069C5.14659 9.36948 4.58318 9.25825 4.02259 9.30744C3.99155 9.31017 3.96052 9.31338 3.9295 9.31709L3.72328 7.3276L3.71067 7.20596C3.76085 7.19996 3.81107 7.19475 3.86129 7.19035C4.49638 7.13462 5.13371 7.20613 5.74141 7.39911C6.00164 7.48174 6.25644 7.58665 6.50331 7.71338C7.37224 8.15944 8.10827 8.85807 8.62836 9.73043C8.73582 9.91067 8.83317 10.0968 8.92014 10.2879C9.25411 11.0218 9.43496 11.8283 9.44673 12.6505L9.44677 12.6538C9.45136 12.9869 9.42812 13.3183 9.37802 13.6443C9.30134 14.1431 9.16174 14.6289 8.96262 15.0882L9.0556 15.1402C8.38632 16.336 8.03782 17.6846 8.04399 19.0549C8.05016 20.4253 8.41078 21.7707 9.09081 22.9604C9.77083 24.1502 10.7471 25.1437 11.9247 25.8444C13.1024 26.5452 14.4413 26.9293 15.8113 26.9595C17.1813 26.9897 18.5358 26.6649 19.7432 26.0166C20.9505 25.3684 21.9696 24.4188 22.7013 23.2602C23.433 22.1015 23.8525 20.7733 23.919 19.4045C23.9855 18.0364 23.697 16.6744 23.0816 15.4507Z" fill="#51572B"/>
</g>
<defs>
<clipPath id="clip0_60_104">
<rect width="32" height="32" fill="white"/>
</clipPath>
</defs>
</svg>
