<svg width="35" height="35" viewBox="0 0 35 35" fill="none" xmlns="http://www.w3.org/2000/svg">
<path fill-rule="evenodd" clip-rule="evenodd" d="M14.843 6.38371C13.6225 7.6027 12.7382 9.11674 12.276 10.7786L12.1468 10.7427C11.9848 11.1573 11.7845 11.5575 11.5491 11.9379C11.2329 12.4488 10.8533 12.9239 10.4181 13.3501C9.48605 14.2629 8.33607 14.9153 7.0979 15.2337C5.85972 15.5521 4.58263 15.5238 3.41071 15.152C2.8983 14.9894 2.4149 14.764 1.97015 14.4823C1.4511 14.1536 0.984695 13.7483 0.586211 13.2769C0.545242 13.2284 0.504987 13.1792 0.465469 13.1294L0.985074 12.704L2.53276 11.437C2.55718 11.4678 2.58206 11.4982 2.60737 11.5281C3.06468 12.0691 3.66673 12.4693 4.35302 12.687C5.0773 12.9168 5.86658 12.9343 6.63181 12.7376C7.39704 12.5408 8.10777 12.1376 8.6838 11.5734C9.25984 11.0092 9.67826 10.3066 9.89185 9.54469L10.0298 9.57376C10.1804 9.11338 10.3572 8.66317 10.5591 8.22526C11.1759 6.88725 12.0268 5.66395 13.0767 4.61532C14.6023 3.09158 16.4962 1.98848 18.5742 1.41328C20.6523 0.838085 22.8438 0.810349 24.9358 1.33277C27.0278 1.85519 28.9489 2.91 30.5126 4.39464C32.0763 5.87929 33.2292 7.74326 33.8593 9.80534C34.4894 11.8674 34.5752 14.0575 34.1085 16.1625C33.6417 18.2676 32.6382 20.2161 31.1956 21.8186C30.2027 22.9214 29.0252 23.8345 27.7209 24.5198C27.13 24.8304 26.513 25.0941 25.8755 25.3076L25.717 24.834L25.5978 24.478L25.6949 24.9389L25.8041 25.4569C25.0422 25.6705 24.3395 26.0889 23.7754 26.665C23.2112 27.241 22.808 27.9517 22.6112 28.7169C22.4144 29.4822 22.4319 30.2715 22.6617 30.9957C22.8795 31.682 23.2796 32.2841 23.8206 32.7414C23.8506 32.7667 23.8809 32.7916 23.9118 32.816L22.6447 34.3637L22.2194 34.8833C22.1695 34.8438 22.1204 34.8035 22.0719 34.7625C21.6005 34.3641 21.1952 33.8977 20.8665 33.3786C20.5848 32.9339 20.3594 32.4505 20.1968 31.938C19.825 30.7661 19.7966 29.489 20.115 28.2509C20.4334 27.0127 21.0858 25.8627 21.9987 24.9307C22.4249 24.4955 22.9 24.1159 23.4109 23.7996C23.9438 23.4698 24.5156 23.2089 25.1116 23.0258L25.082 22.9375C26.7177 22.3899 28.1839 21.4283 29.338 20.1463C30.4922 18.8643 31.295 17.3055 31.6684 15.6215C32.0418 13.9374 31.9731 12.1854 31.469 10.5357C30.9649 8.88606 30.0426 7.39488 28.7917 6.20717C27.5407 5.01945 26.0038 4.17561 24.3302 3.75767C22.6567 3.33973 20.9034 3.36192 19.241 3.82208C17.5785 4.28224 16.0634 5.16471 14.843 6.38371Z" fill="#4D4F41"/>
</svg>
