<svg width="35" height="35" viewBox="0 0 35 35" fill="none" xmlns="http://www.w3.org/2000/svg">
<path fill-rule="evenodd" clip-rule="evenodd" d="M28.6862 20.0546C27.4672 21.2751 25.9532 22.1594 24.2913 22.6215L24.3272 22.7508C23.9126 22.9127 23.5124 23.113 23.1321 23.3484C22.6212 23.6647 22.1461 24.0443 21.7199 24.4795C20.807 25.4115 20.1546 26.5615 19.8362 27.7997C19.5178 29.0378 19.5462 30.3149 19.918 31.4868C20.0806 31.9993 20.306 32.4827 20.5876 32.9274C20.9164 33.4464 21.3217 33.9129 21.7931 34.3113C21.8415 34.3523 21.8907 34.3926 21.9406 34.4321L22.3659 33.9125L23.6329 32.3648C23.6021 32.3404 23.5718 32.3155 23.5418 32.2902C23.0008 31.8329 22.6007 31.2308 22.3829 30.5445C22.1531 29.8203 22.1356 29.031 22.3324 28.2657C22.5292 27.5005 22.9324 26.7898 23.4965 26.2137C24.0607 25.6377 24.7634 25.2193 25.5253 25.0057L25.4962 24.8677C25.9566 24.7172 26.4068 24.5404 26.8447 24.3385C28.1827 23.7216 29.406 22.8708 30.4546 21.8209C31.9784 20.2953 33.0815 18.4014 33.6567 16.3233C34.2319 14.2453 34.2596 12.0537 33.7372 9.96176C33.2148 7.8698 32.1599 5.9486 30.6753 4.38494C29.1907 2.82128 27.3267 1.66836 25.2646 1.03825C23.2025 0.408152 21.0125 0.322311 18.9074 0.789076C16.8023 1.25584 14.8539 2.25933 13.2514 3.70199C12.1486 4.69482 11.2354 5.8724 10.5501 7.17665C10.2396 7.76757 9.97584 8.3845 9.76239 9.02203L10.2359 9.18058L10.592 9.29979L10.1311 9.20265L9.61304 9.09348C9.39945 9.85536 8.98103 10.558 8.40499 11.1222C7.82896 11.6864 7.11823 12.0896 6.353 12.2863C5.58777 12.4831 4.79849 12.4656 4.0742 12.2358C3.38792 12.0181 2.78586 11.6179 2.32856 11.0769C2.30324 11.047 2.27837 11.0166 2.25395 10.9858L0.706263 12.2528L0.186658 12.6782C0.226176 12.728 0.266429 12.7772 0.3074 12.8257C0.705884 13.2971 1.17229 13.7024 1.69134 14.0311C2.13609 14.3128 2.61948 14.5382 3.1319 14.7008C4.30382 15.0726 5.58091 15.1009 6.81909 14.7825C8.05726 14.4641 9.20724 13.8117 10.1393 12.8989C10.5745 12.4726 10.9541 11.9976 11.2703 11.4867C11.6001 10.9538 11.861 10.3819 12.0441 9.78598L12.1324 9.81555C12.6801 8.17983 13.6417 6.71364 14.9236 5.55951C16.2056 4.40538 17.7644 3.60259 19.4485 3.22918C21.1325 2.85577 22.8846 2.92444 24.5342 3.42852C26.1839 3.9326 27.6751 4.85494 28.8628 6.10587C30.0505 7.3568 30.8943 8.89376 31.3123 10.5673C31.7302 12.2409 31.708 13.9941 31.2479 15.6566C30.7877 17.319 29.9052 18.8341 28.6862 20.0546Z" fill="#4D4F41"/>
</svg>
