<svg width="120" height="120" viewBox="0 0 120 120" fill="none" xmlns="http://www.w3.org/2000/svg">
<path d="M60 -1L111.962 29V89L60 119L8.03848 89V29L60 -1Z" fill="#0000FF"/>
<path d="M60 -1L111.962 29V89L60 119L8.03848 89V29L60 -1Z" stroke="black"/>
<path d="M60 9L103.301 34V84L60 109L16.6987 84V34L60 9Z" fill="#00FF00"/>
<path d="M60 9L103.301 34V84L60 109L16.6987 84V34L60 9Z" stroke="black"/>
<path d="M60 19L94.641 39V79L60 99L25.359 79V39L60 19Z" fill="#FF0000"/>
<path d="M60 19L94.641 39V79L60 99L25.359 79V39L60 19Z" stroke="black"/>
<path d="M60 29L85.9808 44V74L60 89L34.0192 74V44L60 29Z" fill="white"/>
<path d="M60 29L85.9808 44V74L60 89L34.0192 74V44L60 29Z" stroke="black"/>
<path d="M48.072 75C47.752 75 47.48 74.904 47.256 74.712C47.064 74.488 46.968 74.2 46.968 73.848V71.784C46.968 71.368 47.032 71.032 47.16 70.776C47.32 70.52 47.496 70.264 47.688 70.008L65.544 45.576H48.504C48.184 45.576 47.912 45.48 47.688 45.288C47.496 45.064 47.4 44.792 47.4 44.472V42.552C47.4 42.2 47.496 41.928 47.688 41.736C47.912 41.512 48.184 41.4 48.504 41.4H70.248C70.6 41.4 70.872 41.512 71.064 41.736C71.288 41.928 71.4 42.2 71.4 42.552V44.616C71.4 44.968 71.336 45.256 71.208 45.48C71.112 45.704 70.968 45.976 70.776 46.296L53.064 70.824H70.728C71.08 70.824 71.352 70.936 71.544 71.16C71.768 71.352 71.88 71.624 71.88 71.976V73.896C71.88 74.216 71.768 74.488 71.544 74.712C71.352 74.904 71.08 75 70.728 75H48.072Z" fill="black"/>
</svg>
